HIERARCHY
ROOT hip
{
  OFFSET 0 0 0
  CHANNELS 6 Xposition Yposition Zposition Zrotation Yrotation Xrotation
  JOINT abdomen
  {
    OFFSET 0 20.6881 -0.73152
    CHANNELS 3 Zrotation Xrotation Yrotation
    JOINT chest
    {
      OFFSET 0 11.7043 -0.48768
      CHANNELS 3 Zrotation Xrotation Yrotation
      JOINT neck
      {
        OFFSET 0 22.1894 -2.19456
        CHANNELS 3 Zrotation Xrotation Yrotation
        JOINT head
        {
          OFFSET -0.24384 7.07133 1.2192
          CHANNELS 3 Zrotation Xrotation Yrotation
          JOINT leftEye
          {
            OFFSET 4.14528 8.04674 8.04672
            CHANNELS 3 Zrotation Xrotation Yrotation
            End Site
            {
              OFFSET 1 0 0
            }
          }
          JOINT rightEye
          {
            OFFSET -3.6576 8.04674 8.04672
            CHANNELS 3 Zrotation Xrotation Yrotation
            End Site
            {
              OFFSET 1 0 0
            }
          }
        }
      }
      JOINT rCollar
      {
        OFFSET -2.68224 19.2634 -4.8768
        CHANNELS 3 Zrotation Xrotation Yrotation
        JOINT rShldr
        {
          OFFSET -8.77824 -1.95073 1.46304
          CHANNELS 3 Zrotation Xrotation Yrotation
          JOINT rForeArm
          {
            OFFSET -28.1742 -1.7115 0.48768
            CHANNELS 3 Zrotation Xrotation Yrotation
            JOINT rHand
            {
              OFFSET -22.5879 0.773209 7.07136
              CHANNELS 3 Zrotation Xrotation Yrotation
              JOINT rThumb1
              {
                OFFSET -1.2192 -0.487915 3.41376
                CHANNELS 3 Zrotation Xrotation Yrotation
                JOINT rThumb2
                {
                  OFFSET -3.37035 -0.52449 3.41376
                  CHANNELS 3 Zrotation Xrotation Yrotation
                  End Site
                  {
                    OFFSET -1.78271 -1.18214 1.43049
                  }
                }
              }
              JOINT rIndex1
              {
                OFFSET -7.75947 0.938293 5.60832
                CHANNELS 3 Zrotation Xrotation Yrotation
                JOINT rIndex2
                {
                  OFFSET -2.54057 -0.884171 1.56538
                  CHANNELS 3 Zrotation Xrotation Yrotation
                  End Site
                  {
                    OFFSET -1.62519 -0.234802 1.16502
                  }
                }
              }
              JOINT rMid1
              {
                OFFSET -8.24714 1.18213 3.41376
                CHANNELS 3 Zrotation Xrotation Yrotation
                JOINT rMid2
                {
                  OFFSET -3.10165 -0.590103 1.0647
                  CHANNELS 3 Zrotation Xrotation Yrotation
                  End Site
                  {
                    OFFSET -2.48547 -0.328903 0.83742
                  }
                }
              }
              JOINT rRing1
              {
                OFFSET -8.82822 0.546677 1.51678
                CHANNELS 3 Zrotation Xrotation Yrotation
                JOINT rRing2
                {
                  OFFSET -2.60934 -0.819778 -0.0198488
                  CHANNELS 3 Zrotation Xrotation Yrotation
                  End Site
                  {
                    OFFSET -2.33842 -0.294052 0.168128
                  }
                }
              }
              JOINT rPinky1
              {
                OFFSET -8.27202 -0.0477905 -0.4584
                CHANNELS 3 Zrotation Xrotation Yrotation
                JOINT rPinky2
                {
                  OFFSET -1.82734 -0.647385 -0.700984
                  CHANNELS 3 Zrotation Xrotation Yrotation
                  End Site
                  {
                    OFFSET -1.69225 -0.51767 -0.607171
                  }
                }
              }
            }
          }
        }
      }
      JOINT lCollar
      {
        OFFSET 2.68224 19.2634 -4.8768
        CHANNELS 3 Zrotation Xrotation Yrotation
        JOINT lShldr
        {
          OFFSET 8.77824 -1.95073 1.46304
          CHANNELS 3 Zrotation Xrotation Yrotation
          JOINT lForeArm
          {
            OFFSET 28.1742 -1.7115 0.48768
            CHANNELS 3 Zrotation Xrotation Yrotation
            JOINT lHand
            {
              OFFSET 22.5879 0.773209 7.07136
              CHANNELS 3 Zrotation Xrotation Yrotation
              JOINT lThumb1
              {
                OFFSET 1.2192 -0.487915 3.41376
                CHANNELS 3 Zrotation Xrotation Yrotation
                JOINT lThumb2
                {
                  OFFSET 3.37035 -0.52449 3.41376
                  CHANNELS 3 Zrotation Xrotation Yrotation
                  End Site
                  {
                    OFFSET 1.78271 -1.18214 1.43049
                  }
                }
              }
              JOINT lIndex1
              {
                OFFSET 7.75947 0.938293 5.60832
                CHANNELS 3 Zrotation Xrotation Yrotation
                JOINT lIndex2
                {
                  OFFSET 2.54057 -0.884171 1.56538
                  CHANNELS 3 Zrotation Xrotation Yrotation
                  End Site
                  {
                    OFFSET 1.62519 -0.234802 1.16502
                  }
                }
              }
              JOINT lMid1
              {
                OFFSET 8.24714 1.18213 3.41376
                CHANNELS 3 Zrotation Xrotation Yrotation
                JOINT lMid2
                {
                  OFFSET 3.10165 -0.590103 1.0647
                  CHANNELS 3 Zrotation Xrotation Yrotation
                  End Site
                  {
                    OFFSET 2.48547 -0.328903 0.83742
                  }
                }
              }
              JOINT lRing1
              {
                OFFSET 8.82822 0.546677 1.51678
                CHANNELS 3 Zrotation Xrotation Yrotation
                JOINT lRing2
                {
                  OFFSET 2.60934 -0.819778 -0.0198488
                  CHANNELS 3 Zrotation Xrotation Yrotation
                  End Site
                  {
                    OFFSET 2.33842 -0.294052 0.168128
                  }
                }
              }
              JOINT lPinky1
              {
                OFFSET 8.27202 -0.0477905 -0.4584
                CHANNELS 3 Zrotation Xrotation Yrotation
                JOINT lPinky2
                {
                  OFFSET 1.82734 -0.647385 -0.700984
                  CHANNELS 3 Zrotation Xrotation Yrotation
                  End Site
                  {
                    OFFSET 1.69225 -0.51767 -0.607171
                  }
                }
              }
            }
          }
        }
      }
    }
  }
  JOINT rButtock
  {
    OFFSET -8.77824 4.35084 1.2192
    CHANNELS 3 Zrotation Xrotation Yrotation
    JOINT rThigh
    {
      OFFSET 0 -1.70687 -2.19456
      CHANNELS 3 Zrotation Xrotation Yrotation
      JOINT rShin
      {
        OFFSET 0 -36.8199 0.73152
        CHANNELS 3 Zrotation Xrotation Yrotation
        JOINT rFoot
        {
          OFFSET 0.73152 -45.1104 -5.12064
          CHANNELS 3 Zrotation Xrotation Yrotation
          End Site
          {
            OFFSET -1.1221 -3.69964 12.103
          }
        }
      }
    }
  }
  JOINT lButtock
  {
    OFFSET 8.77824 4.35084 1.2192
    CHANNELS 3 Zrotation Xrotation Yrotation
    JOINT lThigh
    {
      OFFSET 0 -1.70687 -2.19456
      CHANNELS 3 Zrotation Xrotation Yrotation
      JOINT lShin
      {
        OFFSET 0 -36.8199 0.73152
        CHANNELS 3 Zrotation Xrotation Yrotation
        JOINT lFoot
        {
          OFFSET -0.73152 -45.1104 -5.12064
          CHANNELS 3 Zrotation Xrotation Yrotation
          End Site
          {
            OFFSET 1.1221 -3.69964 12.103
          }
        }
      }
    }
  }
}
MOTION
Frames:	4
Frame Time:	0.00833333
80.109 84.8839 -86.1207 0.0 0.0 0.0 -0.194078 -0.000752046 -0.00553945 -0.0535366 -0.00112971 -0.00927452 -3.04241e-15 0.0 3.10601e-17 -9.18137e-15 3.18055e-15 9.62863e-17 -0.0 0.0 0.0 -0.0 0.0 0.0 -1.49226e-15 -3.88251e-19 1.49089e-16 -3.02475e-14 -3.29237e-16 9.93923e-16 -5.5123e-13 1.62606e-13 9.54166e-15 -6.33435e-12 -1.78558e-13 4.13472e-14 -1.4939e-11 -3.03232e-14 1.33583e-13 -2.5805e-11 -5.08889e-14 2.38542e-13 -1.49319e-11 -2.8625e-14 1.30403e-13 7.73091 5.47488 0.417314 -1.494e-11 -3.05134e-14 1.39944e-13 2.90554 0.965183 0.102902 -1.49331e-11 -3.03147e-14 1.39149e-13 10.2786 0.731801 0.0259123 -1.49464e-11 -2.66371e-14 1.43125e-13 2.22167 -0.733487 -0.20892 -1.589e-15 -7.76503e-19 -1.49089e-16 -3.41674e-14 2.85753e-16 -5.96354e-16 -5.55056e-13 -1.64196e-13 9.54166e-15 -6.33297e-12 1.67948e-13 6.36111e-14 -1.49404e-11 6.44225e-15 1.36764e-13 -2.57947e-11 1.27222e-14 2.44108e-13 -1.49434e-11 7.15625e-15 1.43125e-13 -7.73091 5.47488 -0.417314 -1.49401e-11 6.75868e-15 1.43125e-13 -2.90554 0.965183 -0.102902 -1.49463e-11 6.4605e-15 1.4233e-13 -10.2786 0.731801 -0.0259123 -1.49379e-11 9.1441e-15 1.36764e-13 -2.22167 -0.733487 0.20892 -2.03217e-16 0.0 -3.88251e-19 0.355867 -2.82713 -0.0340698 -0.00665516 -0.431856 -0.0584482 -0.502558 3.25829 0.123802 2.03217e-16 0.0 3.88251e-19 -0.651348 -3.58304 0.0525567 0.00445992 0.937458 0.0381195 0.504955 2.64491 -0.11159
74.6524 83.4707 -89.6268 46.1224 -84.6866 -46.8627 -1.61212 3.63067 1.2275 0.106357 -1.13347 0.275251 -2.8905 0.601968 -0.0527022 2.2843 6.6911 -0.636803 -0.0 0.0 0.0 -0.0 0.0 0.0 6.369e-15 1.151e-13 -2.72743e-14 22.3753 1.76991 -0.994388 -5.29257 -2.66563 7.96364 0.008796 2.08195 0.291903 -1.45485e-10 -1.7498e-10 -1.58634e-10 -2.52562e-10 -3.04003e-10 -2.72937e-10 -1.4548e-10 -1.74977e-10 -1.5864e-10 7.73091 5.47488 0.417314 -1.45488e-10 -1.7498e-10 -1.58629e-10 2.90554 0.965183 0.102902 -1.45479e-10 -1.74978e-10 -1.58631e-10 10.2786 0.731801 0.0259123 -1.4549e-10 -1.74975e-10 -1.58627e-10 2.22167 -0.733487 -0.20892 6.31481e-15 1.151e-13 -2.75022e-14 -20.1705 5.39188 -1.32727 7.84691 -4.78619 -10.6439 -0.00417815 -1.4343 0.20135 7.6759e-11 -2.512e-10 -7.40122e-11 1.33298e-10 -4.33914e-10 -1.27562e-10 7.67565e-11 -2.51204e-10 -7.4003e-11 -7.73091 5.47488 -0.417314 7.67589e-11 -2.51202e-10 -7.40067e-11 -2.90554 0.965183 -0.102902 7.67525e-11 -2.51202e-10 -7.40085e-11 -10.2786 0.731801 -0.0259123 7.67613e-11 -2.512e-10 -7.40158e-11 -2.22167 -0.733487 0.20892 -2.03217e-16 0.0 -3.88251e-19 0.284707 -7.02307 -1.15033 -0.0184111 11.9534 0.0957804 -0.0890695 -1.04391 3.37216 2.03217e-16 0.0 3.88251e-19 -1.46476 -6.91553 -1.32634 0.00517979 8.35713 -0.0511155 0.316775 -0.541076 -2.37776
74.6032 83.4841 -89.1978 49.4963 -84.6225 -50.1627 -3.26724 7.48594 2.53902 0.297297 -2.33051 0.574335 -5.9425 1.23593 -0.113408 4.87454 13.7541 -1.34966 -0.0 0.0 0.0 -0.0 0.0 0.0 1.91932e-14 3.00356e-13 -5.62654e-14 46.0906 3.62866 -2.05072 -10.0941 -5.31543 16.4434 -0.00501801 4.27408 0.600562 -3.24995e-10 -3.73298e-10 -3.62503e-10 -5.64248e-10 -6.48753e-10 -6.23643e-10 -3.24993e-10 -3.73295e-10 -3.62511e-10 7.73091 5.47488 0.417314 -3.25e-10 -3.73299e-10 -3.62498e-10 2.90554 0.965183 0.102902 -3.24989e-10 -3.73294e-10 -3.62502e-10 10.2786 0.731801 0.0259123 -3.24998e-10 -3.73292e-10 -3.62497e-10 2.22167 -0.733487 -0.20892 1.9186e-14 3.00357e-13 -5.64176e-14 -41.217 11.0893 -2.77591 14.2282 -9.2867 -22.1168 0.00238771 -2.95453 0.415191 1.7093e-10 -5.56762e-10 -1.68872e-10 2.96878e-10 -9.61784e-10 -2.91141e-10 1.70928e-10 -5.56771e-10 -1.68859e-10 -7.73091 5.47488 -0.417314 1.70929e-10 -5.56765e-10 -1.68867e-10 -2.90554 0.965183 -0.102902 1.70923e-10 -5.56766e-10 -1.6887e-10 -10.2786 0.731801 -0.0259123 1.70932e-10 -5.56764e-10 -1.68879e-10 -2.22167 -0.733487 0.20892 -2.03217e-16 0.0 -3.88251e-19 0.0361876 -11.4555 -2.38871 -0.110437 25.0706 0.280098 0.909878 -5.52377 7.00993 2.03217e-16 0.0 3.88251e-19 -2.47294 -10.4225 -2.84169 0.0319034 16.2125 -0.150615 -0.151443 -3.88616 -4.75448
74.5579 83.4682 -88.762 53.5139 -84.5633 -54.0928 -4.92404 10.8732 3.75366 0.459933 -3.39782 0.845627 -8.66818 1.8059 -0.158176 7.32354 20.0631 -2.02003 -0.0 0.0 0.0 -0.0 0.0 0.0 2.20915e-14 3.45301e-13 -8.2121e-14 67.3109 5.30333 -2.99457 -13.711 -7.38026 24.0768 -0.037574 6.24521 0.880357 -4.06576e-10 -5.24879e-10 -4.7617e-10 -7.06077e-10 -9.11907e-10 -8.19288e-10 -4.06578e-10 -5.24875e-10 -4.7618e-10 7.73091 5.47488 0.417314 -4.06583e-10 -5.24879e-10 -4.76166e-10 2.90554 0.965183 0.102902 -4.06571e-10 -5.24873e-10 -4.76171e-10 10.2786 0.731801 0.0259123 -4.06578e-10 -5.24871e-10 -4.76167e-10 2.22167 -0.733487 -0.20892 2.21224e-14 3.45302e-13 -8.22083e-14 -59.7365 16.1402 -4.12713 18.4113 -12.3753 -32.6686 0.0177805 -4.3027 0.605568 2.60158e-10 -7.53614e-10 -2.2231e-10 4.51484e-10 -1.30177e-09 -3.83176e-10 2.60156e-10 -7.53627e-10 -2.22295e-10 -7.73091 5.47488 -0.417314 2.60157e-10 -7.53618e-10 -2.22306e-10 -2.90554 0.965183 -0.102902 2.6015e-10 -7.53619e-10 -2.2231e-10 -10.2786 0.731801 -0.0259123 2.6016e-10 -7.53617e-10 -2.22321e-10 -2.22167 -0.733487 0.20892 -2.03217e-16 0.0 -3.88251e-19 -0.364248 -15.392 -3.48206 -0.280207 36.7228 0.496552 2.20906 -9.5096 10.0065 2.03217e-16 0.0 3.88251e-19 -3.58486 -13.5514 -4.1713 0.0807657 23.1963 -0.247995 -0.817769 -6.86399 -6.96014
